<!DOCTYPE svg PUBLIC "-//W3C//DTD SVG 1.1//EN" "http://www.w3.org/Graphics/SVG/1.1/DTD/svg11.dtd">
<!-- Uploaded to: SVG Repo, www.svgrepo.com, Transformed by: SVG Repo Mixer Tools -->
<svg width="800px" height="800px" viewBox="-2.4 -2.4 28.80 28.80" fill="none" xmlns="http://www.w3.org/2000/svg">
<g id="SVGRepo_bgCarrier" stroke-width="0">
<path transform="translate(-2.4, -2.4), scale(0.8999999999999999)" d="M16,29.71448377105925C17.95857564434921,29.248383225970713,19.27280616003376,27.395238956855408,21.186474077394134,26.769824394476686C23.461046143953055,26.02646109685292,26.768302111305182,27.64651390880284,28.19837287398871,25.727877754670967C29.65237534507665,23.777133929944746,26.829914065997635,20.966073320960138,27.29269960204082,18.57748499241406C27.73353901837042,16.302167804217227,31.019040724458744,14.937018826868336,30.734732142771115,12.636893541525703C30.460965489431732,10.422055009773615,27.69586344088788,9.471937365269435,25.989427428435576,8.033697455650643C24.5377457687277,6.810172820787211,22.888432027893376,5.960408477097164,21.40599705473263,4.7743314460406605C19.512112202272814,3.2590586930112107,18.381322497594553,-0.41931644803843604,16.000000000000004,0.04128588901625818C13.342752404345804,0.5552584626292931,13.919492467416593,5.44444740401513,11.515297533292706,6.687419370621566C9.21687928063643,7.875704652750475,6.041964070221519,4.928650931137739,3.859246022837022,6.318071782244312C1.936506317857357,7.542002028549117,1.4794330371469078,10.554540919933896,1.9304364988085716,12.788713943335223C2.394615621064414,15.08815632266688,5.502401178191343,16.003237051002074,6.262355602274795,18.222553789712578C6.909659537380223,20.11289406892767,5.2679479755784815,22.20198780714466,5.812135437505162,24.124550878127707C6.414357117431234,26.252143377727105,7.532313268061914,28.494246019249413,9.470860204279958,29.55789848702459C11.40367558764558,30.618406135233236,13.855253368891962,30.224889165265218,16,29.71448377105925" fill="#7ed0ec" strokewidth="0"/>
</g>
<g id="SVGRepo_tracerCarrier" stroke-linecap="round" stroke-linejoin="round"/>
<g id="SVGRepo_iconCarrier"> <circle cx="12" cy="9" r="3" stroke="#1C274C" stroke-width="1.5"/> <path d="M17.9691 20C17.81 17.1085 16.9247 15 11.9999 15C7.07521 15 6.18991 17.1085 6.03076 20" stroke="#1C274C" stroke-width="1.5" stroke-linecap="round"/> <path d="M7 3.33782C8.47087 2.48697 10.1786 2 12 2C17.5228 2 22 6.47715 22 12C22 17.5228 17.5228 22 12 22C6.47715 22 2 17.5228 2 12C2 10.1786 2.48697 8.47087 3.33782 7" stroke="#1C274C" stroke-width="1.5" stroke-linecap="round"/> </g>
</svg>